<svg width="31" height="30" xmlns="http://www.w3.org/2000/svg">
    <path d="M16.272 30h-.299a104.28 104.28 0 0 1-6.637-.183c-1.937-.118-3.706-.787-5.114-1.936-1.36-1.108-2.287-2.607-2.759-4.453-.41-1.608-.432-3.186-.452-4.713C.996 17.62.98 16.322.977 15.003c.003-1.325.019-2.623.034-3.718.02-1.527.042-3.105.452-4.713.472-1.846 1.4-3.345 2.759-4.453C5.63.97 7.399.301 9.336.183 11.45.055 13.622-.005 15.98 0c2.352-.005 4.524.055 6.637.183 1.938.118 3.706.787 5.115 1.936 1.359 1.108 2.287 2.607 2.758 4.453.41 1.608.432 3.186.453 4.713.015 1.095.03 2.393.034 3.712v.006c-.003 1.32-.02 2.617-.034 3.712-.021 1.527-.043 3.105-.453 4.713-.471 1.846-1.4 3.345-2.758 4.453-1.409 1.149-3.177 1.818-5.115 1.936-2.023.123-4.102.183-6.344.183zm-.299-2.344a102.3 102.3 0 0 0 6.501-.179c1.465-.089 2.735-.564 3.775-1.412.962-.785 1.625-1.867 1.969-3.217.342-1.338.361-2.775.38-4.165.015-1.087.03-2.376.034-3.683a330.077 330.077 0 0 0-.034-3.683c-.019-1.39-.038-2.827-.38-4.165-.344-1.35-1.007-2.432-1.969-3.217-1.04-.848-2.31-1.323-3.775-1.412a102.403 102.403 0 0 0-6.495-.179c-2.313-.006-4.437.053-6.5.179-1.466.089-2.736.564-3.776 1.412-.962.785-1.624 1.867-1.969 3.217-.341 1.338-.36 2.775-.38 4.165-.015 1.088-.03 2.378-.034 3.686.004 1.302.02 2.592.034 3.68.02 1.39.039 2.827.38 4.165.345 1.35 1.007 2.432 1.969 3.217 1.04.848 2.31 1.323 3.775 1.412 2.064.126 4.188.185 6.495.179zm-.056-5.332c-4.038 0-7.324-3.285-7.324-7.324s3.286-7.324 7.324-7.324c4.04 0 7.325 3.285 7.325 7.324s-3.286 7.324-7.325 7.324zm0-12.304a4.986 4.986 0 0 0-4.98 4.98 4.986 4.986 0 0 0 4.98 4.98 4.986 4.986 0 0 0 4.98-4.98 4.986 4.986 0 0 0-4.98-4.98zm8.145-4.688a1.758 1.758 0 1 0 0 3.516 1.758 1.758 0 0 0 0-3.516z" fill="#FFF" fill-rule="nonzero"/>
</svg>
