<svg width="140" height="139" xmlns="http://www.w3.org/2000/svg">
    <g fill="none" fill-rule="evenodd">
        <circle fill="#FFF" cx="67" cy="70" r="45"/>
        <path d="M105.793 23.924a.786.786 0 0 0 .53-.301l.042-.05a.814.814 0 0 0-.51-1.317.817.817 0 0 0-.761.294l-.041.05a.829.829 0 0 0 .74 1.324zM117.888 36.6c.63.164 1.301.026 1.816-.372.51-.318.85-.848.926-1.443a4.125 4.125 0 0 0-.404-1.938l-.357-.787c-.19-.4-.28-.84-.262-1.281.046-.396.267-.75.604-.963.324-.27.767-.352 1.167-.216.46.194.852.522 1.123.941.326.391.528.87.579 1.377 0 .416-.215.803-.568 1.024l-.466.338.451.62 1.953-1.42-.451-.62-.595.433-.028-.04c.144-.292.187-.624.123-.942a2.863 2.863 0 0 0-.571-1.244 3.175 3.175 0 0 0-1.633-1.262 1.938 1.938 0 0 0-1.764.352c-.51.322-.855.85-.943 1.446-.04.656.096 1.31.394 1.896l.363.823c.195.399.283.842.255 1.285a1.35 1.35 0 0 1-.607.945 1.314 1.314 0 0 1-1.257.243 2.71 2.71 0 0 1-1.217-1.031 2.468 2.468 0 0 1-.574-1.479c.016-.448.25-.86.626-1.105l.336-.246-.45-.62-1.953 1.42.45.62.686-.499.029.041a1.901 1.901 0 0 0-.132 1.054c.074.479.27.931.572 1.312a3.198 3.198 0 0 0 1.78 1.338zm3.913 7.776a3.014 3.014 0 0 0 1.7.823c.284.04.572.048.858.026l.03-.5a5.182 5.182 0 0 1-.72-.07 2.197 2.197 0 0 1-.678-.235 2.551 2.551 0 0 1-.61-.468 3.094 3.094 0 0 1-.52-.748 2.474 2.474 0 0 1-.146-2.151 3.37 3.37 0 0 1 1.69-1.694l.925-.475a3.572 3.572 0 0 1 1.18-.38c.37-.051.746-.031 1.109.058.352.09.68.255.96.485.3.25.545.558.719.906.279.46.426.986.425 1.524l-.041.021a.967.967 0 0 0-.479-.23.874.874 0 0 0-.91.52.747.747 0 0 0 .069.64c.093.2.266.352.477.419.224.06.464.027.664-.09.21-.108.383-.275.499-.48.128-.227.207-.478.231-.737a2.807 2.807 0 0 0-.068-.917 4.338 4.338 0 0 0-.383-1.024 3.994 3.994 0 0 0-.962-1.238 3.253 3.253 0 0 0-1.292-.675 3.844 3.844 0 0 0-1.553-.064 5.594 5.594 0 0 0-1.731.584 5.845 5.845 0 0 0-1.477 1.045 3.848 3.848 0 0 0-.869 1.263c-.183.448-.26.933-.223 1.417.044.529.196 1.043.446 1.512.173.347.403.662.68.933zm1.898 4.202 1.238 3.627.56-.19-.51-1.496 4.954-1.686c.243-.08.501-.101.754-.062.268.036.529.115.772.235.24.117.458.274.647.463.177.171.312.381.395.614.02.06.043.132.065.214a.835.835 0 0 1 .034.174l-.03.01a.435.435 0 0 0-.264-.18.71.71 0 0 0-.43.028.643.643 0 0 0-.402.356.792.792 0 0 0 0 .591.7.7 0 0 0 .375.43.83.83 0 0 0 .634.003.945.945 0 0 0 .634-.596c.097-.33.08-.684-.048-1.004a2.245 2.245 0 0 0-.392-.727 2.197 2.197 0 0 0-1.148-.732 3.245 3.245 0 0 0-.618-.102l-.025-.075 1.423-.484-1.067-1.983-.41.14.257 1.245-6.432 2.19-.408-1.194-.558.191zm4.023 9.183a3.381 3.381 0 0 1 1.99-1.002l1.386-.246a3.39 3.39 0 0 1 2.215.255 2.68 2.68 0 0 1 .678 3.804c-.53.55-1.232.903-1.99 1.003l-1.385.246a3.387 3.387 0 0 1-2.215-.255 2.68 2.68 0 0 1-.68-3.805h.001zm-.533 3.606c.262.406.615.746 1.03.993.45.26.946.429 1.461.494a5.76 5.76 0 0 0 1.826-.057 5.68 5.68 0 0 0 1.725-.573c.458-.24.863-.568 1.192-.966.305-.376.52-.817.632-1.288a4.077 4.077 0 0 0-.534-3.002 3.223 3.223 0 0 0-1.038-.991 3.896 3.896 0 0 0-1.453-.496 5.685 5.685 0 0 0-1.817.055 5.757 5.757 0 0 0-1.733.576c-.461.239-.87.568-1.2.967a3.129 3.129 0 0 0-.624 1.287 4.179 4.179 0 0 0 .529 3.001h.004zm.442 4.764.15 3.509.592-.025-.054-1.26 11.681-.5-.464-2.232-.431.018-.106 1.267-10.722.458-.054-1.26-.592.025zm.14 5.845-.186 3.508.59.031.067-1.26 11.675.614-.248-2.267-.431-.023-.227 1.251-10.72-.563.068-1.26-.589-.03zm-2.338 16.036c.14.441.404.833.761 1.127l-.017.061-1.386-.39-.258 2.266.415.117.497-1.17 11.049 3.117.259-2.266-.416-.117-.497 1.17-4.248-1.197.017-.062c.455-.08.88-.277 1.234-.573.435-.382.74-.891.869-1.455a3.097 3.097 0 0 0-.367-2.702c-.531-.786-1.474-1.37-2.83-1.751-1.354-.382-2.464-.377-3.327.016a3.1 3.1 0 0 0-1.727 2.11 2.832 2.832 0 0 0-.033 1.699h.005zm1.93-2.89a3.372 3.372 0 0 1 2.307-.047l1.108.312a3.37 3.37 0 0 1 1.941 1.245c.407.61.504 1.373.264 2.065-.08.281-.2.55-.358.795-.15.234-.338.442-.556.614a1.94 1.94 0 0 1-.697.35c-.261.068-.535.062-.793-.015l-3.387-.955a1.472 1.472 0 0 1-.684-.4 1.943 1.943 0 0 1-.41-.663 2.481 2.481 0 0 1-.153-.814 2.926 2.926 0 0 1 .112-.865 2.34 2.34 0 0 1 1.302-1.622h.004zM123.7 95.587a3.387 3.387 0 0 1 2.2.358l1.266.614a3.38 3.38 0 0 1 1.64 1.506 2.676 2.676 0 0 1-1.692 3.475 3.387 3.387 0 0 1-2.2-.357l-1.266-.614a3.38 3.38 0 0 1-1.64-1.507 2.677 2.677 0 0 1 1.692-3.475zm-2.557 2.603c-.027.482.057.964.246 1.408.21.474.513.902.89 1.257.446.42.956.765 1.511 1.024.545.275 1.13.46 1.733.549a3.914 3.914 0 0 0 1.534-.082c.469-.126.904-.355 1.271-.672a4.082 4.082 0 0 0 1.336-2.743 3.21 3.21 0 0 0-.256-1.41 3.898 3.898 0 0 0-.883-1.255 5.678 5.678 0 0 0-1.503-1.023 5.768 5.768 0 0 0-1.74-.552 3.894 3.894 0 0 0-1.541.078c-.468.125-.9.356-1.263.675a4.185 4.185 0 0 0-1.334 2.746zm-3.833 6.323-.592.774 4.152 5.809-.041.05-6.634-2.558-.601.788 4.697 6.363-.504.66.47.358 1.707-2.235-.47-.357-.815 1.066-4.109-5.495.03-.039 6.964 2.73.524-.685-4.417-6.07.03-.039 6.387 2.512-.824 1.08.47.357 1.94-2.538-.47-.358-.504.66-7.39-2.833zm-7.267 8.815-2.665 2.292.386.448.957-.823 3.445 3.996c.183.204.313.45.376.717.057.248.058.504.005.752a2.086 2.086 0 0 1-.297.708c-.148.226-.327.43-.533.606-1.075.923-2.153.757-3.237-.498l-3.009-3.489.958-.823-.386-.448-2.666 2.293.386.448.958-.823 3.072 3.562c.673.78 1.342 1.222 2.007 1.323.665.102 1.369-.167 2.112-.806a3.13 3.13 0 0 0 .626-.706c.141-.222.249-.464.32-.717.062-.225.089-.458.08-.69a1.88 1.88 0 0 0-.12-.604l.049-.041.939 1.089 1.445-1.726-.282-.328-1.062.702-4.435-5.142.958-.823-.387-.45zm-19.264 12.79a.785.785 0 0 0 .018.61l.026.058a.816.816 0 0 0 1.498-.644l-.025-.058a.832.832 0 0 0-1.517.034zm-18.182 4.845c-.45.47-.658 1.12-.561 1.763.029.6.326 1.154.809 1.512a4.141 4.141 0 0 0 1.891.594l.861.074c.443.03.87.166 1.248.398.323.233.524.599.546.996.078.415-.066.841-.38 1.123a2.491 2.491 0 0 1-1.373.518 2.557 2.557 0 0 1-1.485-.169 1.203 1.203 0 0 1-.619-.996l-.068-.57-.763.09.287 2.395.763-.091-.088-.73.048-.005c.184.268.451.468.76.568.44.147.91.185 1.367.11a3.18 3.18 0 0 0 1.901-.805 1.93 1.93 0 0 0 .553-1.706 2.068 2.068 0 0 0-.804-1.529 3.708 3.708 0 0 0-1.85-.582l-.895-.087a2.564 2.564 0 0 1-1.249-.406 1.35 1.35 0 0 1-.53-.99 1.309 1.309 0 0 1 .403-1.213 2.714 2.714 0 0 1 1.496-.557 2.482 2.482 0 0 1 1.573.223c.385.233.632.638.662 1.087l.049.412.762-.091-.287-2.394-.762.09.1.841-.047.006a1.909 1.909 0 0 0-.857-.63 2.82 2.82 0 0 0-1.426-.143 3.201 3.201 0 0 0-2.034.894zm-8.702-.382a3.008 3.008 0 0 0-1.547 1.083c-.173.23-.32.477-.44.737l.423.27c.122-.207.26-.405.41-.593.15-.188.332-.349.536-.477.218-.137.456-.24.706-.304a3.09 3.09 0 0 1 .907-.09 2.483 2.483 0 0 1 1.954.92c.493.66.728 1.478.659 2.298l-.035 1.038a3.55 3.55 0 0 1-.24 1.214 2.953 2.953 0 0 1-.592.938 2.46 2.46 0 0 1-.893.602c-.363.14-.753.203-1.142.185a2.933 2.933 0 0 1-1.54-.37v-.049a.965.965 0 0 0 .434-.305.87.87 0 0 0-.013-1.047.75.75 0 0 0-.591-.25.785.785 0 0 0-.6.21.868.868 0 0 0-.246.623c-.007.236.055.469.178.67.136.222.318.413.533.56.256.175.538.305.836.388.352.1.716.155 1.082.164a4.007 4.007 0 0 0 1.553-.236c.461-.17.878-.443 1.218-.798.359-.381.635-.831.813-1.323.208-.575.32-1.182.332-1.794a5.831 5.831 0 0 0-.196-1.796 3.848 3.848 0 0 0-.682-1.372 3.125 3.125 0 0 0-1.13-.885 3.895 3.895 0 0 0-1.541-.347 3.477 3.477 0 0 0-1.145.136zm-4.604-.39-3.778-.681-.105.581 1.559.28-.93 5.142c-.048.25-.155.486-.312.688a2.5 2.5 0 0 1-.58.559c-.22.152-.463.267-.72.34a1.614 1.614 0 0 1-.732.046 3.37 3.37 0 0 1-.219-.048.834.834 0 0 1-.169-.055l.006-.03c.11-.01.213-.062.287-.144a.707.707 0 0 0 .184-.389.64.64 0 0 0-.117-.524.791.791 0 0 0-.516-.286.702.702 0 0 0-.558.118.829.829 0 0 0-.311.552.94.94 0 0 0 .213.842c.242.246.56.403.903.447a2.187 2.187 0 0 0 2.024-.635c.145-.15.275-.315.389-.491l.079.014-.267 1.477 2.253.033.077-.424-1.216-.381 1.209-6.678 1.243.225.104-.578zm-9.993-.947c.223.73.192 1.513-.088 2.223l-.458 1.329a3.378 3.378 0 0 1-1.298 1.808 2.69 2.69 0 0 1-3.661-1.255 3.37 3.37 0 0 1 .089-2.224l.457-1.329a3.378 3.378 0 0 1 1.299-1.808 2.69 2.69 0 0 1 3.661 1.256zm-2.898-2.218a3.145 3.145 0 0 0-1.37.416 3.891 3.891 0 0 0-1.142 1.035 5.739 5.739 0 0 0-.836 1.62 5.657 5.657 0 0 0-.336 1.785 3.883 3.883 0 0 0 .267 1.51c.181.448.462.85.82 1.176a4.097 4.097 0 0 0 2.89.99 3.222 3.222 0 0 0 1.371-.423 3.897 3.897 0 0 0 1.14-1.027c.363-.49.645-1.034.834-1.613a5.73 5.73 0 0 0 .338-1.792 3.873 3.873 0 0 0-.264-1.517 3.124 3.124 0 0 0-.824-1.17 4.202 4.202 0 0 0-2.887-.99zm-4.392-1.933-3.144-1.577-.266.528 1.129.566-5.25 10.428 2.18.683.195-.385-1.058-.71 4.819-9.572 1.128.567.267-.528zm-5.176-2.724-2.975-1.874-.316.5 1.068.673-6.24 9.87 2.104.89.23-.364-.984-.808 5.728-9.06 1.069.673.316-.5zm-12.882-9.866a2.4 2.4 0 0 0-1.357.115l-.045-.045 1.017-1.018-1.857-1.33-.305.306.782 1.003-8.11 8.117 1.857 1.33.305-.305-.782-1.004 3.117-3.12.045.045a2.61 2.61 0 0 0-.1 1.355 2.76 2.76 0 0 0 .85 1.466 3.109 3.109 0 0 0 2.54.996c.947-.08 1.918-.618 2.912-1.613.995-.994 1.531-1.964 1.609-2.909a3.098 3.098 0 0 0-1.005-2.533 2.841 2.841 0 0 0-1.472-.854v-.002zm1.588 3.091a3.36 3.36 0 0 1-1.083 2.034l-.813.813a3.367 3.367 0 0 1-2.034 1.087 2.347 2.347 0 0 1-1.935-.778 2.92 2.92 0 0 1-.52-.7 2.475 2.475 0 0 1-.268-.784 1.933 1.933 0 0 1 .033-.778 1.47 1.47 0 0 1 .4-.683l2.486-2.487c.186-.194.423-.333.683-.402.255-.064.52-.076.78-.035.274.044.54.133.786.264.258.137.495.312.702.519.55.486.84 1.2.784 1.93h-.001zm-7.382-8.286a3.374 3.374 0 0 1-1.381 1.746l-1.153.807a3.385 3.385 0 0 1-2.115.7 2.687 2.687 0 0 1-1.785-1.11 2.678 2.678 0 0 1-.437-2.053 3.38 3.38 0 0 1 1.381-1.747l1.153-.806a3.383 3.383 0 0 1 2.115-.7 2.686 2.686 0 0 1 1.788 1.108c.42.597.577 1.339.437 2.055h-.003zm-1.038-3.495a3.142 3.142 0 0 0-1.354-.467 3.902 3.902 0 0 0-1.533.167 5.769 5.769 0 0 0-1.632.819 5.677 5.677 0 0 0-1.322 1.246 3.88 3.88 0 0 0-.673 1.378c-.117.47-.127.96-.028 1.433a4.08 4.08 0 0 0 1.753 2.497c.413.255.878.413 1.36.463a3.898 3.898 0 0 0 1.527-.164 5.678 5.678 0 0 0 1.625-.815 5.743 5.743 0 0 0 1.328-1.252c.317-.41.548-.88.68-1.382a3.12 3.12 0 0 0 .022-1.43 4.188 4.188 0 0 0-1.75-2.493h-.003zm-3.674-6.405-.39-.892-7.1.8-.026-.058 5.462-4.546-.398-.907-7.851 1.008-.333-.76-.543.237 1.129 2.574.542-.237-.539-1.228 6.808-.916.02.044-5.774 4.749.346.79 7.46-.905.019.044-5.302 4.354-.544-1.243-.543.236 1.282 2.926.543-.237-.334-.76 6.066-5.073zM9.255 86.773l-.702-3.441-.58.118.252 1.236-5.176 1.052c-.268.06-.546.052-.81-.023a1.755 1.755 0 0 1-.66-.363 2.075 2.075 0 0 1-.474-.604 2.833 2.833 0 0 1-.269-.76c-.283-1.388.389-2.247 2.015-2.577l4.52-.918.251 1.236.58-.118-.702-3.442-.58.118.252 1.236-4.614.937c-1.011.206-1.724.573-2.137 1.103-.413.53-.522 1.274-.328 2.233.059.31.164.61.312.89.125.232.284.444.472.63.166.163.356.3.564.406.183.095.381.16.586.19l.012.063-1.41.287.804 2.101.423-.086-.095-1.269 6.66-1.354.253 1.236.581-.117zm-1.786-23.02a.787.787 0 0 0-.543-.28l-.063-.007a.816.816 0 0 0-.84 1.148.816.816 0 0 0 .676.472l.063.007a.832.832 0 0 0 .71-1.34h-.003zm4.587-18.213a2.1 2.1 0 0 0-1.271-1.347 2.01 2.01 0 0 0-1.717-.028 4.132 4.132 0 0 0-1.44 1.36l-.483.718c-.24.371-.568.679-.955.895-.36.169-.779.166-1.137-.008a1.21 1.21 0 0 1-.798-.878 2.477 2.477 0 0 1 .213-1.448c.162-.482.465-.905.87-1.214.354-.22.798-.242 1.172-.057l.533.218.29-.71-2.235-.912-.29.709.68.278-.018.045c-.324.03-.629.166-.867.387a2.862 2.862 0 0 0-.76 1.138c-.3.64-.377 1.362-.219 2.05.169.611.626 1.101 1.225 1.31.543.265 1.174.28 1.728.041.58-.31 1.067-.77 1.41-1.33l.513-.737c.238-.375.57-.683.963-.892.36-.156.77-.15 1.123.02.434.141.762.498.868.94a2.698 2.698 0 0 1-.24 1.576 2.47 2.47 0 0 1-.96 1.264 1.38 1.38 0 0 1-1.27.05l-.386-.158-.29.71 2.235.913.29-.71-.784-.32.018-.044c.358-.053.693-.206.967-.442.37-.314.654-.719.82-1.175.331-.689.404-1.474.205-2.212h-.003zm4.578-7.405a3 3 0 0 0-.19-1.877 4.025 4.025 0 0 0-.43-.744l-.441.237c.12.209.227.426.317.649.09.223.143.46.156.7.012.257-.014.514-.08.763-.079.295-.202.576-.364.835a2.48 2.48 0 0 1-1.757 1.252 3.38 3.38 0 0 1-2.332-.547l-.89-.537a3.562 3.562 0 0 1-.943-.802 2.946 2.946 0 0 1-.533-.973 2.452 2.452 0 0 1-.09-1.071c.055-.386.19-.756.395-1.086.245-.478.618-.88 1.076-1.16l.041.024a.963.963 0 0 0 .055.527.873.873 0 0 0 .921.5.747.747 0 0 0 .509-.393.781.781 0 0 0 .107-.625.87.87 0 0 0-.42-.518 1.214 1.214 0 0 0-.672-.172c-.261.01-.517.075-.751.19-.277.138-.529.32-.746.54-.26.258-.486.548-.672.863-.28.447-.467.946-.552 1.467-.076.485-.04.982.103 1.451.158.499.417.96.76 1.354.402.463.877.856 1.406 1.165.515.32 1.077.558 1.666.706.5.127 1.022.153 1.533.076.479-.08.933-.27 1.325-.554a3.892 3.892 0 0 0 1.055-1.172c.206-.329.355-.69.44-1.068h-.002zm2.592-3.821 2.44-2.958-.457-.376-1.007 1.22-4.04-3.321a1.619 1.619 0 0 1-.452-.608c-.11-.246-.179-.509-.205-.777a2.392 2.392 0 0 1 .055-.793c.053-.242.162-.468.317-.66.04-.05.09-.105.148-.168a.841.841 0 0 1 .13-.12l.025.02a.433.433 0 0 0-.014.32c.045.139.132.261.25.35.14.123.329.18.515.154a.793.793 0 0 0 .51-.309.7.7 0 0 0 .168-.544.827.827 0 0 0-.33-.54.947.947 0 0 0-.84-.226c-.334.091-.626.291-.831.569a2.173 2.173 0 0 0-.435 2.072c.06.2.14.393.238.578l-.051.062-1.16-.954-1.13 1.946.333.274.927-.872 5.25 4.313-.804.974.45.374zm5.7-8.242a3.382 3.382 0 0 1-1.902-1.16l-.94-1.045a3.373 3.373 0 0 1-.951-2.012 2.679 2.679 0 0 1 .89-1.903 2.688 2.688 0 0 1 1.99-.679c.747.16 1.417.57 1.902 1.16l.94 1.045c.536.544.871 1.253.951 2.012a2.679 2.679 0 0 1-.889 1.902 2.688 2.688 0 0 1-1.989.68h-.002zm3.352-1.449a3.13 3.13 0 0 0 .301-1.397 3.878 3.878 0 0 0-.35-1.5 5.754 5.754 0 0 0-1.01-1.518c-.401-.46-.873-.85-1.399-1.16a3.904 3.904 0 0 0-1.451-.502c-.481-.06-.97-.01-1.43.144a4.088 4.088 0 0 0-2.272 2.037c-.204.44-.305.92-.296 1.404.014.515.131 1.023.344 1.494a5.677 5.677 0 0 0 1.006 1.512c.402.46.877.854 1.404 1.166.446.265.941.438 1.456.508.48.06.967.009 1.424-.15a4.192 4.192 0 0 0 2.275-2.038h-.002zm3.818-2.888 2.907-1.978-.333-.489-1.044.71-6.587-9.642-1.656 1.572.243.356 1.134-.578 6.047 8.85-1.044.711.333.488zm4.907-3.202 3.086-1.688-.284-.518-1.108.606L33.08 6.698l-1.801 1.404.205.378 1.185-.466 5.157 9.395-1.107.607.285.517zm14.893-6.442c.303-.35.498-.78.56-1.239l.062-.017.395 1.382 2.068-.97-.119-.415-1.258.192L50.454 0l-2.068.97.119.415 1.259-.192 1.21 4.238-.061.017a2.62 2.62 0 0 0-1.136-.747 2.771 2.771 0 0 0-1.698.027c-.932.22-1.71.859-2.108 1.729-.391.864-.393 1.971-.007 3.322s.974 2.291 1.763 2.82c.799.53 1.798.662 2.707.358a2.845 2.845 0 0 0 1.464-.866h-.002zm-3.478-.123a3.361 3.361 0 0 1-1.251-1.934l-.316-1.106a3.356 3.356 0 0 1 .041-2.302 2.344 2.344 0 0 1 1.622-1.31c.281-.081.573-.12.865-.114.279.004.555.054.816.15.248.09.474.229.666.409.194.186.334.422.403.682l.965 3.378c.079.257.085.53.019.792a1.93 1.93 0 0 1-.35.696c-.173.218-.38.406-.615.556-.246.16-.514.28-.796.36a2.348 2.348 0 0 1-2.067-.256h-.002zM59.271 9.58a3.373 3.373 0 0 1-.851-2.056l-.142-1.398a3.37 3.37 0 0 1 .42-2.185 2.686 2.686 0 0 1 3.852-.39c.508.57.808 1.295.852 2.057l.141 1.398a3.37 3.37 0 0 1-.42 2.185 2.687 2.687 0 0 1-3.852.39zm3.563.803c.425-.23.79-.555 1.069-.95.294-.428.499-.91.603-1.417.124-.6.151-1.215.08-1.822a5.666 5.666 0 0 0-.443-1.76 3.892 3.892 0 0 0-.876-1.26 3.224 3.224 0 0 0-1.239-.725 4.096 4.096 0 0 0-3.04.308 3.214 3.214 0 0 0-1.065.958 3.886 3.886 0 0 0-.605 1.41 5.661 5.661 0 0 0-.082 1.813c.053.61.203 1.206.445 1.768.204.477.502.909.876 1.27.352.33.776.576 1.238.717a4.202 4.202 0 0 0 3.036-.31h.003zm7.392-.076.971.092 2.752-6.585.063.005 1.325 6.976.987.094 2.936-7.339.828.08.056-.589-2.802-.267-.058.59 1.337.127-2.507 6.386-.048-.004-1.353-7.347-.862-.082-2.834 6.947-.048-.004-1.234-6.742 1.354.129.056-.588-3.185-.304-.056.588.83.075 1.492 7.762zm11.347 1.512 3.355 1.059.178-.563-1.204-.38 1.592-5.028c.077-.263.22-.502.413-.696.181-.178.4-.314.639-.4.243-.087.5-.127.759-.12.27.007.538.052.796.134 1.352.427 1.778 1.43 1.278 3.01l-1.39 4.39-1.205-.38-.178.563 3.355 1.059.178-.564-1.205-.38 1.42-4.481c.311-.983.335-1.783.072-2.4-.264-.618-.863-1.075-1.797-1.37-.3-.1-.615-.154-.931-.16a2.677 2.677 0 0 0-.78.106 2.278 2.278 0 0 0-.63.295 1.879 1.879 0 0 0-.45.418l-.062-.019.434-1.37-2.23-.319-.131.41 1.156.532-2.05 6.468-1.205-.38-.177.566zM67.5 72a1.5 1.5 0 1 0 0-3 1.5 1.5 0 0 0 0 3z" fill="#546E7A"/>
    </g>
</svg>
